<svg xmlns="http://www.w3.org/2000/svg" viewBox="0 0 256 256" role="img" aria-label="InvestmentsView app icon">
  <defs>
    <linearGradient id="bgGradient" x1="0%" y1="100%" x2="100%" y2="0%">
      <stop offset="0%" stop-color="#0f172a" />
      <stop offset="100%" stop-color="#1f3a68" />
    </linearGradient>
    <linearGradient id="accentGradient" x1="0%" y1="100%" x2="100%" y2="0%">
      <stop offset="0%" stop-color="#22d3ee" />
      <stop offset="100%" stop-color="#38bdf8" />
    </linearGradient>
    <linearGradient id="arrowGradient" x1="10%" y1="90%" x2="90%" y2="10%">
      <stop offset="0%" stop-color="#bef264" />
      <stop offset="100%" stop-color="#facc15" />
    </linearGradient>
    <filter id="shadow" x="-10%" y="-10%" width="120%" height="120%" color-interpolation-filters="sRGB">
      <feDropShadow dx="0" dy="8" stdDeviation="12" flood-color="#0f172a" flood-opacity="0.35" />
    </filter>
  </defs>
  <rect width="256" height="256" rx="56" fill="url(#bgGradient)" />
  <g filter="url(#shadow)">
    <path d="M64 176c18-46 46-72 80-72c21.4 0 38.7 9.1 53.7 26.5l-14.8 13.2c-11.9-14.1-24.9-20.7-38.9-20.7c-23.6 0-44.1 19.7-58.8 58.1H64Z" fill="url(#accentGradient)" />
    <path d="M96 144l34 34l46-62l26 26l-72 72l-54-54l20-16Z" fill="url(#arrowGradient)" />
  </g>
</svg>
